<mxfile host="app.diagrams.net" agent="Mozilla/5.0 (Windows NT 10.0; Win64; x64) AppleWebKit/537.36 (KHTML, like Gecko) Chrome/136.0.0.0 Safari/537.36 Edg/136.0.0.0" version="27.0.6">
  <diagram name="Page-1" id="SvbmH81Ma0V85eWWUMpE">
    <mxGraphModel dx="728" dy="423" grid="1" gridSize="10" guides="1" tooltips="1" connect="1" arrows="1" fold="1" page="1" pageScale="1" pageWidth="3300" pageHeight="4681" math="0" shadow="0">
      <root>
        <mxCell id="0" />
        <mxCell id="1" parent="0" />
        <mxCell id="0RY3Ug9kw7kizrEod2a5-1" value="&lt;p style=&quot;white-space-collapse: preserve;&quot; dir=&quot;auto&quot;&gt;Ethernet Header (14 bytes)&lt;/p&gt;&lt;p style=&quot;white-space-collapse: preserve;&quot; dir=&quot;auto&quot;&gt;Src MAC: 0a:00:27:00:00:09&lt;br&gt;Dst MAC: 08:00:27:05:2b:d9&lt;/p&gt;" style="rounded=0;whiteSpace=wrap;html=1;imageWidth=70;imageHeight=50;align=center;fontStyle=1;fillColor=#cce5ff;strokeColor=#36393d;noLabel=0;" vertex="1" parent="1">
          <mxGeometry x="250" y="50" width="210" height="70" as="geometry" />
        </mxCell>
        <mxCell id="0RY3Ug9kw7kizrEod2a5-3" value="" style="endArrow=none;html=1;rounded=0;exitX=-0.008;exitY=0.37;exitDx=0;exitDy=0;entryX=1.003;entryY=0.385;entryDx=0;entryDy=0;entryPerimeter=0;exitPerimeter=0;" edge="1" parent="1" source="0RY3Ug9kw7kizrEod2a5-1" target="0RY3Ug9kw7kizrEod2a5-1">
          <mxGeometry width="50" height="50" relative="1" as="geometry">
            <mxPoint x="250.00000000000006" y="77.57999999999998" as="sourcePoint" />
            <mxPoint x="488.08000000000004" y="76.94999999999999" as="targetPoint" />
          </mxGeometry>
        </mxCell>
        <mxCell id="0RY3Ug9kw7kizrEod2a5-4" value="&lt;p style=&quot;white-space-collapse: preserve;&quot; dir=&quot;auto&quot;&gt;IPv4 Header (20 bytes)&lt;/p&gt;&lt;p style=&quot;white-space-collapse: preserve;&quot; dir=&quot;auto&quot;&gt;Src IP: 192.168.56.1&lt;br/&gt;Dst IP: 192.168.56.2&lt;/p&gt;" style="rounded=0;whiteSpace=wrap;html=1;imageWidth=70;imageHeight=50;align=center;fontStyle=1;fillColor=#d5e8d4;strokeColor=#82b366;noLabel=0;gradientColor=#97d077;" vertex="1" parent="1">
          <mxGeometry x="250" y="130" width="210" height="70" as="geometry" />
        </mxCell>
        <mxCell id="0RY3Ug9kw7kizrEod2a5-5" value="" style="endArrow=none;html=1;rounded=0;exitX=-0.018;exitY=0.403;exitDx=0;exitDy=0;entryX=1.011;entryY=0.406;entryDx=0;entryDy=0;entryPerimeter=0;exitPerimeter=0;" edge="1" parent="1" source="0RY3Ug9kw7kizrEod2a5-4" target="0RY3Ug9kw7kizrEod2a5-4">
          <mxGeometry width="50" height="50" relative="1" as="geometry">
            <mxPoint x="30" y="90" as="sourcePoint" />
            <mxPoint x="243" y="91" as="targetPoint" />
          </mxGeometry>
        </mxCell>
        <mxCell id="0RY3Ug9kw7kizrEod2a5-8" value="" style="endArrow=none;html=1;rounded=0;exitX=-0.008;exitY=0.37;exitDx=0;exitDy=0;entryX=1.003;entryY=0.385;entryDx=0;entryDy=0;entryPerimeter=0;exitPerimeter=0;fillColor=#fff2cc;gradientColor=#ffd966;strokeColor=#000000;" edge="1" parent="1" source="0RY3Ug9kw7kizrEod2a5-7">
          <mxGeometry width="50" height="50" relative="1" as="geometry">
            <mxPoint x="250" y="230" as="sourcePoint" />
            <mxPoint x="463" y="231" as="targetPoint" />
          </mxGeometry>
        </mxCell>
        <mxCell id="0RY3Ug9kw7kizrEod2a5-9" value="&lt;p style=&quot;&quot; dir=&quot;auto&quot;&gt;&lt;span style=&quot;white-space-collapse: preserve;&quot;&gt;HTTP Request (484 bytes)&lt;/span&gt;&lt;/p&gt;&lt;p style=&quot;&quot; dir=&quot;auto&quot;&gt;&lt;span style=&quot;white-space-collapse: preserve;&quot;&gt;GET /22291459.html HTTP/1.1&lt;br/&gt;Host: 192.168.56.2&lt;/span&gt;&lt;/p&gt;" style="rounded=0;whiteSpace=wrap;html=1;imageWidth=70;imageHeight=50;align=center;fontStyle=1;fillColor=#ffcc99;strokeColor=#36393d;noLabel=0;" vertex="1" parent="1">
          <mxGeometry x="250" y="290" width="210" height="70" as="geometry" />
        </mxCell>
        <mxCell id="0RY3Ug9kw7kizrEod2a5-10" value="" style="endArrow=none;html=1;rounded=0;exitX=-0.008;exitY=0.37;exitDx=0;exitDy=0;entryX=1.003;entryY=0.385;entryDx=0;entryDy=0;entryPerimeter=0;exitPerimeter=0;fillColor=#fff2cc;gradientColor=#ffd966;strokeColor=#000000;" edge="1" parent="1">
          <mxGeometry width="50" height="50" relative="1" as="geometry">
            <mxPoint x="250" y="320" as="sourcePoint" />
            <mxPoint x="463" y="321" as="targetPoint" />
          </mxGeometry>
        </mxCell>
        <mxCell id="0RY3Ug9kw7kizrEod2a5-11" value="&lt;b&gt;Total Packet Size: 538 bytes (14 + 20 + 20 + 484)&lt;/b&gt;" style="text;html=1;align=center;verticalAlign=middle;resizable=0;points=[];autosize=1;strokeColor=#36393d;fillColor=#f9f7ed;" vertex="1" parent="1">
          <mxGeometry x="205" y="380" width="300" height="30" as="geometry" />
        </mxCell>
        <mxCell id="0RY3Ug9kw7kizrEod2a5-12" value="" style="endArrow=none;html=1;rounded=0;exitX=-0.008;exitY=0.37;exitDx=0;exitDy=0;entryX=1.003;entryY=0.385;entryDx=0;entryDy=0;entryPerimeter=0;exitPerimeter=0;fillColor=#fff2cc;gradientColor=#ffd966;strokeColor=#000000;" edge="1" parent="1" target="0RY3Ug9kw7kizrEod2a5-7">
          <mxGeometry width="50" height="50" relative="1" as="geometry">
            <mxPoint x="250" y="230" as="sourcePoint" />
            <mxPoint x="463" y="231" as="targetPoint" />
          </mxGeometry>
        </mxCell>
        <mxCell id="0RY3Ug9kw7kizrEod2a5-7" value="&lt;p style=&quot;&quot; dir=&quot;auto&quot;&gt;&lt;span style=&quot;white-space-collapse: preserve;&quot;&gt;TCP Header (20 bytes)&lt;/span&gt;&lt;/p&gt;&lt;p style=&quot;&quot; dir=&quot;auto&quot;&gt;&lt;span style=&quot;white-space-collapse: preserve;&quot;&gt;Src Port: 64749&lt;br/&gt;Dst Port: 80&lt;/span&gt;&lt;/p&gt;" style="rounded=0;whiteSpace=wrap;html=1;imageWidth=70;imageHeight=50;align=center;fontStyle=1;fillColor=#fff2cc;strokeColor=#d6b656;noLabel=0;gradientColor=#ffd966;" vertex="1" parent="1">
          <mxGeometry x="250" y="210" width="210" height="70" as="geometry" />
        </mxCell>
        <mxCell id="0RY3Ug9kw7kizrEod2a5-13" value="" style="endArrow=none;html=1;rounded=0;exitX=-0.018;exitY=0.403;exitDx=0;exitDy=0;entryX=1.011;entryY=0.406;entryDx=0;entryDy=0;entryPerimeter=0;exitPerimeter=0;" edge="1" parent="1">
          <mxGeometry width="50" height="50" relative="1" as="geometry">
            <mxPoint x="247" y="240" as="sourcePoint" />
            <mxPoint x="463" y="240" as="targetPoint" />
          </mxGeometry>
        </mxCell>
        <mxCell id="0RY3Ug9kw7kizrEod2a5-14" value="&lt;b&gt;Packet Diagram for HTTP Request: GET /22291459.html HTTP/1.1&lt;/b&gt;" style="text;html=1;align=center;verticalAlign=middle;resizable=0;points=[];autosize=1;strokeColor=#9673a6;fillColor=#e1d5e7;" vertex="1" parent="1">
          <mxGeometry x="160" y="10" width="390" height="30" as="geometry" />
        </mxCell>
      </root>
    </mxGraphModel>
  </diagram>
</mxfile>
